<?xml version="1.0" encoding="UTF-8" standalone="no"?>
<!-- Generator: Adobe Illustrator 19.0.0, SVG Export Plug-In . SVG Version: 6.00 Build 0)  -->

<svg
   xmlns:dc="http://purl.org/dc/elements/1.1/"
   xmlns:cc="http://creativecommons.org/ns#"
   xmlns:rdf="http://www.w3.org/1999/02/22-rdf-syntax-ns#"
   xmlns:svg="http://www.w3.org/2000/svg"
   xmlns="http://www.w3.org/2000/svg"
   xmlns:sodipodi="http://sodipodi.sourceforge.net/DTD/sodipodi-0.dtd"
   xmlns:inkscape="http://www.inkscape.org/namespaces/inkscape"
   version="1.1"
   id="Layer_1"
   x="0px"
   y="0px"
   viewBox="0 0 512 512"
   style="enable-background:new 0 0 512 512;"
   xml:space="preserve"
   inkscape:version="0.48+devel "
   onload="var src; if (document.documentURI) src = document.documentURI; else if (this.getSrc) src = this.getSrc(); else src = document.location.href + ''; try {parent.preload.load(src);}catch(e) {}"
   width="100%"
   height="100%"
   sodipodi:docname="draw.svg"><metadata
   id="metadata13535"><rdf:RDF><cc:Work
       rdf:about=""><dc:format>image/svg+xml</dc:format><dc:type
         rdf:resource="http://purl.org/dc/dcmitype/StillImage" /><dc:title></dc:title></cc:Work></rdf:RDF></metadata><defs
   id="defs13533" /><sodipodi:namedview
   pagecolor="#ffffff"
   bordercolor="#666666"
   borderopacity="1"
   objecttolerance="10"
   gridtolerance="10"
   guidetolerance="10"
   inkscape:pageopacity="0"
   inkscape:pageshadow="2"
   inkscape:window-width="1920"
   inkscape:window-height="1017"
   id="namedview13531"
   showgrid="false"
   inkscape:zoom="1.3037281"
   inkscape:cx="558.8211"
   inkscape:cy="279.5499"
   inkscape:window-x="-8"
   inkscape:window-y="-8"
   inkscape:window-maximized="1"
   inkscape:current-layer="Layer_1" />
<path
   style="fill:#FFBC00;"
   d="M499.157,30.771l-60.92,147.316l-55.234,133.565l-46.028,111.304l-31.136,75.293  C302.398,506.573,294.282,512,285.28,512h-58.558c-9.003,0-17.119-5.427-20.56-13.751l-31.137-75.293l-46.028-111.304  L73.764,178.087L12.843,30.771C6.783,16.116,17.55,0,33.404,0h445.192C494.449,0,505.217,16.116,499.157,30.771z"
   id="path13485" />
<path
   style="fill:#E0A000;"
   d="M275.469,467.478c0,4.611-3.735,8.348-8.344,8.348h-22.251c-4.609,0-8.344-3.736-8.344-8.348  s3.735-8.348,8.344-8.348h22.251C271.734,459.13,275.469,462.867,275.469,467.478z"
   id="path13487" />
<path
   style="fill:#92B703;"
   d="M499.157,30.771l-60.92,147.316l-55.234,133.565l-46.028,111.304H175.024l-46.028-111.304  L73.764,178.087L12.843,30.771C6.783,16.116,17.55,0,33.404,0h445.192C494.449,0,505.217,16.116,499.157,30.771z"
   id="path13489" />
<path
   style="fill:#768900;"
   d="M292.157,367.304c0,4.611-3.735,8.348-8.344,8.348h-55.627c-4.609,0-8.344-3.736-8.344-8.348  c0-4.611,3.735-8.348,8.344-8.348h55.627C288.422,358.957,292.157,362.693,292.157,367.304z"
   id="path13491" />
<path
   style="fill:#FF6029;"
   d="M499.157,30.771l-60.92,147.316l-55.234,133.565H128.996L73.764,178.087L12.843,30.771  C6.783,16.116,17.55,0,33.404,0h445.192C494.449,0,505.217,16.116,499.157,30.771z"
   id="path13493" />
<path
   style="fill:#B7441C;"
   d="M319.97,228.174c0,4.611-3.735,8.348-8.345,8.348H200.372c-4.609,0-8.344-3.736-8.344-8.348  s3.735-8.348,8.344-8.348h111.253C316.235,219.826,319.97,223.563,319.97,228.174z M289.376,253.217h-66.751  c-4.609,0-8.344,3.736-8.344,8.348c0,4.611,3.735,8.348,8.344,8.348h66.751c4.609,0,8.345-3.736,8.345-8.348  C297.72,256.954,293.985,253.217,289.376,253.217z"
   id="path13495" />
<path
   style="fill:#73A4BC;"
   d="M33.404,0h445.192c15.853,0,26.621,16.116,20.56,30.771l-60.919,147.316H73.764L12.843,30.771  C6.783,16.116,17.55,0,33.404,0z"
   id="path13497"
   inkscape:label="{&quot;attr&quot;:&quot;popup&quot;,&quot;height&quot;:400,&quot;src&quot;:&quot;TAG1&quot;,&quot;width&quot;:500,&quot;x&quot;:100,&quot;y&quot;:100},{&quot;align&quot;:&quot;Right&quot;,&quot;attr&quot;:&quot;set&quot;,&quot;prompt&quot;:&quot;&quot;,&quot;src&quot;:&quot;&quot;,&quot;tag&quot;:&quot;TAG1&quot;,&quot;type&quot;:&quot;Data&quot;},{&quot;attr&quot;:&quot;slider&quot;,&quot;max&quot;:20000000,&quot;min&quot;:0,&quot;readonly&quot;:0,&quot;tag&quot;:&quot;TAG1&quot;}" />
<path
   style="fill:#56889B;"
   d="M331.096,72.348c0,4.611-3.735,8.348-8.345,8.348H189.249c-4.609,0-8.344-3.736-8.344-8.348  S184.639,64,189.249,64h133.503C327.361,64,331.096,67.736,331.096,72.348z M300.501,97.391h-89.002  c-4.609,0-8.344,3.736-8.344,8.348s3.735,8.348,8.344,8.348h89.002c4.609,0,8.344-3.736,8.344-8.348S305.11,97.391,300.501,97.391z"
   id="path13499" />
<g
   id="g13501">
</g>
<g
   id="g13503">
</g>
<g
   id="g13505">
</g>
<g
   id="g13507">
</g>
<g
   id="g13509">
</g>
<g
   id="g13511">
</g>
<g
   id="g13513">
</g>
<g
   id="g13515">
</g>
<g
   id="g13517">
</g>
<g
   id="g13519">
</g>
<g
   id="g13521">
</g>
<g
   id="g13523">
</g>
<g
   id="g13525">
</g>
<g
   id="g13527">
</g>
<g
   id="g13529">
</g>
</svg>